<svg xmlns="http://www.w3.org/2000/svg" viewBox="0 0 335.35 313.12"><defs><style>.cls-1{fill:#00ffeb;}.cls-2{fill:#00ffcd;}.cls-3{fill:#00dbbe;}.cls-4{fill:#00c2d2;}.cls-5{fill:#3fa9f5;}.cls-6{fill:#3fbfd2;}.cls-7{fill:#3fb6eb;}.cls-8{fill:#00e2d2;}.cls-9{fill:#539df5;}</style></defs><title>sandcstl1</title><g id="Layer_2" data-name="Layer 2"><g id="Layer_1-2" data-name="Layer 1"><polygon class="cls-1" points="167.58 234.66 223.45 273.89 167.58 313.12 111.72 273.89 167.58 234.66"/><polygon class="cls-2" points="223.45 195.43 279.31 234.66 223.45 273.89 167.58 234.66 223.45 195.43"/><polygon class="cls-2" points="111.72 195.43 167.58 234.66 111.72 273.89 55.86 234.66 111.72 195.43"/><polygon class="cls-3" points="167.58 156.21 223.45 195.43 167.58 234.66 111.72 195.43 167.58 156.21"/><polygon class="cls-3" points="55.86 156.21 111.72 195.43 55.86 234.66 0 195.43 55.86 156.21"/><polygon class="cls-4" points="111.72 116.98 167.58 156.21 111.72 195.43 55.86 156.21 111.72 116.98"/><polygon class="cls-5" points="111.72 38.78 167.58 78.01 111.72 117.24 55.86 78.01 111.72 38.78"/><polygon class="cls-6" points="55.86 77.75 111.72 116.98 55.86 156.21 0 116.98 55.86 77.75"/><polygon class="cls-7" points="167.77 77.75 223.63 116.98 167.77 156.21 111.91 116.98 167.77 77.75"/><polygon class="cls-6" points="279.49 77.75 335.35 116.98 279.49 156.21 223.63 116.98 279.49 77.75"/><polygon class="cls-4" points="223.63 116.98 279.49 156.21 223.63 195.43 167.77 156.21 223.63 116.98"/><polygon class="cls-5" points="223.63 38.78 279.49 78.01 223.63 117.24 167.77 78.01 223.63 38.78"/><polygon class="cls-8" points="335.17 116.98 335.17 156.21 335.17 195.43 279.31 156.21 335.17 116.98"/><polygon class="cls-8" points="0 195.43 0 156.21 0 116.98 55.86 156.21 0 195.43"/><polygon class="cls-3" points="279.31 156.21 335.17 195.43 279.31 234.66 223.45 195.43 279.31 156.21"/><polygon class="cls-9" points="168.59 77.3 222.63 39.23 194.79 19.62 168.59 1.17 168.59 0 167.77 0.58 166.94 0 139.1 19.62 111.8 38.84 111.25 39.23 166.94 78.46 167.77 77.88 168.59 78.46 168.59 77.3"/></g></g></svg>