<svg xmlns="http://www.w3.org/2000/svg" viewBox="0 0 335.17 313.57"><defs><style>.cls-1{fill:aqua;}.cls-2{fill:#00ffcd;}.cls-3{fill:#00dbbe;}.cls-4{fill:#00c2d2;}.cls-5{fill:#3fa9f5;}.cls-6{fill:#3fbfd2;}.cls-7{fill:#3fb6eb;}.cls-8{fill:#539af5;}.cls-9{fill:#00e2d2;}</style></defs><title>sandcstl2</title><g id="Layer_2" data-name="Layer 2"><g id="Layer_1-2" data-name="Layer 1"><polygon class="cls-1" points="167.58 235.11 223.45 274.34 167.58 313.57 111.72 274.34 167.58 235.11"/><polygon class="cls-2" points="223.45 195.88 279.31 235.11 223.45 274.34 167.58 235.11 223.45 195.88"/><polygon class="cls-2" points="111.72 195.88 167.58 235.11 111.72 274.34 55.86 235.11 111.72 195.88"/><polygon class="cls-3" points="167.58 156.66 223.45 195.88 167.58 235.11 111.72 195.88 167.58 156.66"/><polygon class="cls-3" points="55.86 156.66 111.72 195.88 55.86 235.11 0 195.88 55.86 156.66"/><polygon class="cls-4" points="111.72 117.43 167.58 156.66 111.72 195.88 55.86 156.66 111.72 117.43"/><polygon class="cls-5" points="111.72 39.23 167.58 78.2 111.72 117.69 55.86 78.46 111.72 39.23"/><polygon class="cls-6" points="55.86 78.2 111.72 117.43 55.86 156.66 0 117.43 55.86 78.2"/><polygon class="cls-7" points="167.58 78.2 223.45 117.43 167.58 156.66 111.72 117.43 167.58 78.2"/><polygon class="cls-6" points="279.31 78.2 335.17 117.43 279.31 156.66 223.45 117.43 279.31 78.2"/><polygon class="cls-4" points="223.45 117.43 279.31 156.66 223.45 195.88 167.58 156.66 223.45 117.43"/><polygon class="cls-5" points="223.63 39.23 279.49 78.46 223.63 117.69 167.58 78.2 223.63 39.23"/><polygon class="cls-8" points="167.68 0 223.54 39.23 167.68 78.46 111.72 39.23 167.68 0"/><polygon class="cls-9" points="335.17 117.43 335.17 156.66 335.17 195.88 279.31 156.66 335.17 117.43"/><polygon class="cls-9" points="0 195.88 0 156.66 0 117.43 55.86 156.66 0 195.88"/><polygon class="cls-3" points="279.31 156.66 335.17 195.88 279.31 235.11 223.45 195.88 279.31 156.66"/></g></g></svg>